<?xml version="1.0" encoding="UTF-8"?>
<!DOCTYPE svg PUBLIC "-//W3C//DTD SVG 1.1//EN" "http://www.w3.org/Graphics/SVG/1.1/DTD/svg11.dtd">
<!-- Creator: CorelDRAW 2020 (64 Bit) -->
<svg xmlns="http://www.w3.org/2000/svg" xml:space="preserve" width="13.6129mm" height="14.4391mm" version="1.1" style="shape-rendering:geometricPrecision; text-rendering:geometricPrecision; image-rendering:optimizeQuality; fill-rule:evenodd; clip-rule:evenodd"
viewBox="0 0 761.38 807.59"
 xmlns:xlink="http://www.w3.org/1999/xlink"
 xmlns:xodm="http://www.corel.com/coreldraw/odm/2003">
 <defs>
  <style type="text/css">
   <![CDATA[
    .fil2 {fill:url(#id0)}
    .fil1 {fill:url(#id1)}
    .fil0 {fill:url(#id2)}
   ]]>
  </style>
  <linearGradient id="id0" gradientUnits="userSpaceOnUse" x1="396.87" y1="190.29" x2="369.93" y2="-24.79">
   <stop offset="0" style="stop-opacity:1; stop-color:#FEFEFE"/>
   <stop offset="1" style="stop-opacity:1; stop-color:#757576"/>
  </linearGradient>
  <linearGradient id="id1" gradientUnits="userSpaceOnUse" x1="569.34" y1="330.23" x2="712.04" y2="623.23">
   <stop offset="0" style="stop-opacity:1; stop-color:#FEFEFE"/>
   <stop offset="1" style="stop-opacity:1; stop-color:#969696"/>
  </linearGradient>
  <linearGradient id="id2" gradientUnits="userSpaceOnUse" x1="179.15" y1="328.83" x2="-0.13" y2="674.21">
   <stop offset="0" style="stop-opacity:1; stop-color:#FEFEFE"/>
   <stop offset="1" style="stop-opacity:1; stop-color:#A8A8A8"/>
  </linearGradient>
 </defs>
 <g id="Camada_x0020_1">
  <metadata id="CorelCorpID_0Corel-Layer"/>
  <path class="fil0" d="M11.12 193.59c29.7,12.31 60.18,24.91 91.32,37.81 7.75,3.21 14.78,13.57 15.62,22.91 3.38,37.59 6.67,74.46 9.91,110.48 0.79,8.75 -4.7,12.97 -12.17,9.49 -30.08,-14.03 -59.48,-27.69 -88.21,-41.07 -6.94,-3.23 -13.39,-12.76 -14.42,-21.24 -4.25,-35.01 -8.6,-70.76 -13.02,-107.22 -1.1,-9.07 3.8,-14.13 10.96,-11.16zm293.88 432.19c33.38,17.38 67.56,35.21 102.56,53.45 8.73,4.55 15.96,15.01 16,23.25 0.16,33.12 0.32,65.57 0.47,97.39 0.04,7.65 -6.85,9.99 -15.22,5.27 -33.63,-18.94 -66.46,-37.47 -98.58,-55.57 -7.77,-4.38 -14.36,-14.03 -14.71,-21.53 -1.45,-31.14 -2.94,-62.88 -4.45,-95.28 -0.37,-8.03 5.89,-11.18 13.94,-6.99zm-135.5 -70.67c30.3,15.78 61.29,31.98 92.99,48.51 7.9,4.12 14.68,14.06 15.08,22.06 1.63,32.31 3.25,63.97 4.82,95.05 0.38,7.48 -5.53,10.05 -13.12,5.77 -30.54,-17.23 -60.48,-34.1 -89.75,-50.58 -7.1,-4 -13.4,-13.21 -14.03,-20.53 -2.64,-30.41 -5.31,-61.37 -8.05,-92.98 -0.68,-7.84 4.75,-11.11 12.06,-7.3zm-123.32 -64.39c27.65,14.41 55.84,29.16 84.69,44.22 7.17,3.74 13.61,13.2 14.31,21.02 2.86,31.51 5.63,62.44 8.38,92.76 0.67,7.3 -4.47,10.05 -11.39,6.15 -27.95,-15.74 -55.27,-31.14 -82.06,-46.24 -6.47,-3.64 -12.43,-12.42 -13.3,-19.62 -3.61,-29.71 -7.28,-59.92 -11.02,-90.75 -0.93,-7.61 3.73,-11.01 10.38,-7.55zm-16.78 -142.2c28.61,13.52 57.91,27.32 87.87,41.42 7.42,3.5 14.17,13.36 14.94,21.9 3.1,34.36 6.11,68.05 9.09,101.01 0.72,7.98 -4.58,11.49 -11.76,7.78 -28.99,-14.98 -57.29,-29.64 -85.01,-43.98 -6.69,-3.46 -12.89,-12.69 -13.84,-20.47 -3.91,-32.15 -7.89,-65.01 -11.95,-98.44 -1.01,-8.32 3.76,-12.47 10.66,-9.21zm262.43 -38.72c36.53,15.13 74.03,30.68 112.56,46.62 9.61,3.98 17.58,15.53 17.63,25.57 0.19,40.28 0.38,79.62 0.57,118.05 0.04,9.32 -7.51,13.33 -16.67,9.08 -36.9,-17.12 -72.83,-33.87 -107.9,-50.15 -8.46,-3.93 -15.68,-14.44 -16.1,-23.47 -1.75,-37.31 -3.48,-75.55 -5.27,-114.57 -0.45,-9.73 6.37,-14.78 15.19,-11.14zm-147.56 -61.09c32.89,13.6 66.57,27.57 101.11,41.87 8.6,3.56 16.01,14.47 16.49,24.14 1.97,38.91 3.85,76.99 5.75,114.25 0.46,9 -5.93,13.14 -14.21,9.3 -33.22,-15.43 -65.67,-30.54 -97.3,-45.25 -7.66,-3.56 -14.5,-13.55 -15.25,-22.28 -3.12,-36.16 -6.32,-73.13 -9.56,-110.87 -0.81,-9.37 4.99,-14.45 12.96,-11.16z"/>
  <path class="fil1" d="M463.11 353.59c29.32,-20.76 57.75,-40.86 85.26,-60.33 6.61,-4.68 11.71,-0.41 11.37,9.31 -1.39,39.14 -2.74,77.36 -4.07,114.63 -0.32,9.02 -5.73,20.37 -12.06,25.39 -26.33,20.86 -53.46,42.36 -81.44,64.52 -7,5.54 -12.7,2.49 -12.67,-6.81 0.08,-38.55 0.16,-78.19 0.25,-118.77 0.02,-10.11 6.04,-22.74 13.37,-27.93zm106.77 226.79c23.32,-20.72 46.09,-40.91 68.21,-60.56 5.32,-4.73 9.25,-2.27 8.74,5.48 -2.09,31.13 -4.16,61.58 -6.17,91.44 -0.48,7.2 -5.04,17.07 -10.19,21.98 -21.38,20.44 -43.32,41.41 -65.8,62.91 -5.62,5.38 -10,3.78 -9.71,-3.57 1.21,-30.63 2.44,-61.87 3.7,-93.84 0.31,-7.95 5.39,-18.66 11.22,-23.85zm6.26 -148.01c24.41,-19.59 48.12,-38.63 71.2,-57.14 5.55,-4.46 9.61,-1.09 9.04,7.38 -2.3,34.07 -4.54,67.47 -6.72,100.07 -0.53,7.92 -5.31,18.19 -10.66,22.9 -22.22,19.53 -45.06,39.61 -68.51,60.22 -5.87,5.15 -10.41,2.72 -10.1,-5.36 1.3,-33.62 2.66,-68.03 4.03,-103.22 0.34,-8.73 5.62,-19.95 11.72,-24.84zm111.74 -237.85c22.48,-15.9 44.31,-31.38 65.57,-46.42 5.13,-3.62 8.64,0.83 7.81,9.78 -3.36,36.02 -6.65,71.31 -9.87,105.82 -0.78,8.34 -5.48,18.36 -10.43,22.29 -20.57,16.34 -41.67,33.08 -63.32,50.3 -5.43,4.31 -9.36,0.81 -8.76,-7.84 2.48,-35.72 5.02,-72.33 7.62,-109.69 0.64,-9.32 5.75,-20.25 11.38,-24.23zm-104.86 74.21c25.54,-18.09 50.36,-35.65 74.43,-52.69 5.79,-4.1 10.01,0.28 9.39,9.63 -2.52,37.53 -4.96,74.25 -7.35,110.14 -0.58,8.68 -5.59,19.31 -11.15,23.73 -23.17,18.41 -46.99,37.32 -71.5,56.77 -6.15,4.88 -10.9,1.54 -10.55,-7.45 1.44,-37.14 2.93,-75.2 4.4,-114.17 0.37,-9.73 5.93,-21.44 12.32,-25.96z"/>
  <path class="fil2" d="M360.55 1.24c28.65,8.59 57.82,17.35 87.67,26.3 7.37,2.21 8.9,6.5 3.35,9.5 -23.02,12.39 -46.63,25.08 -70.83,38.13 -6.03,3.26 -17.14,3.9 -24.66,1.44 -30.29,-9.9 -59.96,-19.59 -89.02,-29.07 -7.03,-2.3 -7.69,-6.64 -1.55,-9.64 24.66,-12.08 48.73,-23.88 72.22,-35.38 5.67,-2.77 15.9,-3.37 22.83,-1.29zm55.94 211.34c36.04,13.17 72.96,26.68 110.8,40.52 9.46,3.46 11.91,10 5.33,14.59 -27.38,19.09 -55.66,38.77 -84.82,59.06 -7.3,5.08 -21.28,6.02 -30.94,2.11 -38.74,-15.69 -76.45,-30.97 -113.22,-45.85 -8.86,-3.58 -9.97,-10.26 -2.48,-14.88 29.98,-18.45 59.05,-36.36 87.29,-53.74 6.79,-4.18 19.37,-4.97 28.03,-1.81zm111.63 -69.57c35.11,11.56 71.07,23.43 107.82,35.56 9.17,3.03 12.03,8.8 6.25,12.82 -24.04,16.73 -48.79,33.97 -74.25,51.72 -6.37,4.44 -19.39,5.25 -28.79,1.86 -37.76,-13.65 -74.59,-26.99 -110.52,-39.97 -8.68,-3.14 -10.31,-8.99 -3.7,-13.06 26.34,-16.2 51.96,-31.97 76.92,-47.31 6,-3.69 17.79,-4.41 26.27,-1.62zm-257.29 16.28c32.48,11.89 65.81,24.07 99.92,36.55 8.46,3.1 9.87,8.99 3.08,13.13 -28.27,17.21 -57.44,34.96 -87.44,53.22 -7.51,4.57 -20.75,5.43 -29.39,1.92 -34.69,-14.05 -68.53,-27.77 -101.51,-41.12 -8,-3.23 -8.23,-9.25 -0.6,-13.41 30.54,-16.66 60.23,-32.89 89.08,-48.64 6.95,-3.79 19,-4.54 26.86,-1.66zm114.77 -63.32c31.87,10.52 64.48,21.29 97.83,32.28 8.31,2.74 10.15,7.96 4.13,11.62 -25,15.2 -50.74,30.81 -77.18,46.88 -6.59,4.01 -18.92,4.79 -27.41,1.73 -34.04,-12.3 -67.28,-24.34 -99.7,-36.06 -7.85,-2.84 -8.68,-8.15 -1.94,-11.83 27.03,-14.75 53.36,-29.12 79.05,-43.09 6.18,-3.36 17.51,-4.05 25.21,-1.51zm-246.74 15.05c29.5,10.8 59.69,21.83 90.58,33.13 7.66,2.81 8.32,8.15 1.36,11.91 -28.91,15.61 -58.66,31.67 -89.25,48.17 -7.64,4.12 -20.28,4.92 -28.07,1.76 -31.25,-12.65 -61.76,-25.02 -91.56,-37.09 -7.19,-2.91 -6.72,-8.36 1,-12.14 30.91,-15.15 61,-29.89 90.27,-44.23 7.05,-3.45 18.55,-4.13 25.67,-1.53zm116.92 -57.88c29.08,9.59 58.79,19.4 89.18,29.43 7.54,2.49 8.65,7.26 2.46,10.59 -25.72,13.85 -52.12,28.09 -79.21,42.71 -6.76,3.65 -18.6,4.36 -26.29,1.58 -30.83,-11.14 -60.94,-22.06 -90.39,-32.71 -7.14,-2.58 -7.27,-7.43 -0.41,-10.79 27.49,-13.46 54.31,-26.6 80.46,-39.41 6.3,-3.09 17.15,-3.73 24.2,-1.4zm371.43 28.14c34.13,10.25 69.06,20.73 104.75,31.43 8.88,2.67 12.01,7.78 6.9,11.34 -21.26,14.81 -43.12,30.05 -65.6,45.7 -5.61,3.9 -17.76,4.65 -26.87,1.67 -36.66,-11.97 -72.55,-23.68 -107.53,-35.11 -8.46,-2.76 -10.55,-7.95 -4.71,-11.54 23.38,-14.38 46.2,-28.37 68.38,-42 5.35,-3.28 16.44,-3.97 24.69,-1.49zm-139.17 -41.77c31.22,9.36 63.1,18.93 95.63,28.7 8.08,2.43 10.3,7.09 4.93,10.35 -22.29,13.52 -45.14,27.39 -68.65,41.65 -5.84,3.55 -17.38,4.24 -25.64,1.54 -33.27,-10.86 -65.84,-21.49 -97.64,-31.87 -7.68,-2.51 -9.05,-7.24 -3.04,-10.52 24.14,-13.15 47.71,-25.97 70.66,-38.48 5.53,-3.01 16.19,-3.64 23.75,-1.38z"/>
 </g>
</svg>
